<svg width="32" height="32" viewBox="0 0 32 32" fill="none" xmlns="http://www.w3.org/2000/svg">
  <g clip-path="url(#clip0_100_1574)">
    <path
      d="M27.6533 6.61333C27.48 5.90667 26.76 5.48 26.0533 5.64C22.88 6.36 19.32 6.66667 16 6.66667C12.68 6.66667 9.11997 6.36 5.94664 5.65333C5.22663 5.49333 4.51997 5.90667 4.34663 6.62667L4.31997 6.69333C4.14663 7.41333 4.5733 8.16 5.2933 8.32C7.4533 8.81333 9.78663 9.14667 12 9.33333V24C12 24.7333 12.6 25.3333 13.3333 25.3333C14.0666 25.3333 14.6666 24.7333 14.6666 24V17.3333H17.3333V24C17.3333 24.7333 17.9333 25.3333 18.6666 25.3333C19.4 25.3333 20 24.7333 20 24V9.33333C22.2133 9.14667 24.5466 8.81333 26.7066 8.32C27.4266 8.16 27.8533 7.41333 27.68 6.69333L27.6533 6.61333ZM16 5.33333C17.4666 5.33333 18.6666 4.13333 18.6666 2.66667C18.6666 1.2 17.4666 0 16 0C14.5333 0 13.3333 1.2 13.3333 2.66667C13.3333 4.13333 14.5333 5.33333 16 5.33333ZM10.6666 32C11.4 32 12 31.4 12 30.6667C12 29.9333 11.4 29.3333 10.6666 29.3333C9.9333 29.3333 9.3333 29.9333 9.3333 30.6667C9.3333 31.4 9.9333 32 10.6666 32ZM16 32C16.7333 32 17.3333 31.4 17.3333 30.6667C17.3333 29.9333 16.7333 29.3333 16 29.3333C15.2666 29.3333 14.6666 29.9333 14.6666 30.6667C14.6666 31.4 15.2666 32 16 32ZM21.3333 32C22.0666 32 22.6666 31.4 22.6666 30.6667C22.6666 29.9333 22.0666 29.3333 21.3333 29.3333C20.6 29.3333 20 29.9333 20 30.6667C20 31.4 20.6 32 21.3333 32Z"
      fill="currentColor" />
  </g>
  <defs>
    <clipPath id="clip0_100_1574">
      <rect width="32" height="32" fill="white" />
    </clipPath>
  </defs>
</svg>
