<svg width="76" height="80" viewBox="0 0 76 80" fill="none" xmlns="http://www.w3.org/2000/svg">
  <path
    d="M75.4837 13.2854L72.7654 55.9712L46.7752 0L75.4837 13.2854ZM57.482 68.4803L37.8437 79.6858L18.2051 68.4803L22.1993 58.8003H53.4878L57.482 68.4803ZM37.8437 21.2458L48.1342 46.2637H27.5529L37.8437 21.2458ZM2.89388 55.9712L0.203369 13.2854L28.9118 0L2.89388 55.9712Z"
    fill="currentColor" />
  <path
    d="M75.4837 13.2854L72.7654 55.9712L46.7752 0L75.4837 13.2854ZM57.482 68.4803L37.8437 79.6858L18.2051 68.4803L22.1993 58.8003H53.4878L57.482 68.4803ZM37.8437 21.2458L48.1342 46.2637H27.5529L37.8437 21.2458ZM2.89388 55.9712L0.203369 13.2854L28.9118 0L2.89388 55.9712Z"
    fill="currentColor" />
</svg>
