<svg width="32" height="32" viewBox="0 0 32 32" fill="none" xmlns="http://www.w3.org/2000/svg">
  <g clip-path="url(#clip0_69_1336)">
    <path
      d="M16 2.66667C8.64002 2.66667 2.66669 8.64 2.66669 16C2.66669 23.36 8.64002 29.3333 16 29.3333C23.36 29.3333 29.3334 23.36 29.3334 16C29.3334 8.64 23.36 2.66667 16 2.66667ZM16 26.6667C10.12 26.6667 5.33335 21.88 5.33335 16C5.33335 10.12 10.12 5.33334 16 5.33334C21.88 5.33334 26.6667 10.12 26.6667 16C26.6667 21.88 21.88 26.6667 16 26.6667ZM21.1734 11.0533L13.3334 18.8933L10.8267 16.3867C10.3067 15.8667 9.46669 15.8667 8.94669 16.3867C8.42669 16.9067 8.42669 17.7467 8.94669 18.2667L12.4 21.72C12.92 22.24 13.76 22.24 14.28 21.72L23.0667 12.9333C23.5867 12.4133 23.5867 11.5733 23.0667 11.0533C22.5467 10.5333 21.6934 10.5333 21.1734 11.0533Z"
      fill="currentColor" />
  </g>
  <defs>
    <clipPath id="clip0_69_1336">
      <rect width="32" height="32" fill="white" />
    </clipPath>
  </defs>
</svg>
