<svg width="32" height="32" viewBox="0 0 32 32" fill="none" xmlns="http://www.w3.org/2000/svg">
  <path
    d="M24.4 7.61333C23.88 7.09333 23.04 7.09333 22.52 7.61333L16 14.12L9.48002 7.59999C8.96002 7.07999 8.12002 7.07999 7.60002 7.59999C7.08002 8.11999 7.08002 8.95999 7.60002 9.47999L14.12 16L7.60002 22.52C7.08002 23.04 7.08002 23.88 7.60002 24.4C8.12002 24.92 8.96002 24.92 9.48002 24.4L16 17.88L22.52 24.4C23.04 24.92 23.88 24.92 24.4 24.4C24.92 23.88 24.92 23.04 24.4 22.52L17.88 16L24.4 9.47999C24.9067 8.97333 24.9067 8.11999 24.4 7.61333Z"
    fill="currentColor" />
</svg>
