<svg width="56" height="80" viewBox="0 0 56 80" fill="none" xmlns="http://www.w3.org/2000/svg">
  <path fill-rule="evenodd" clip-rule="evenodd"
    d="M7.05221 27.4715C2.96101 24.8056 0.256348 20.1901 0.256348 14.9428C0.256348 6.69014 6.94648 0 15.1992 0H40.801C49.0537 0 55.7438 6.69014 55.7438 14.9428C55.7438 20.1901 53.0393 24.8056 48.948 27.4715C53.0393 30.1373 55.7438 34.7529 55.7438 40.0001C55.7438 48.2528 49.0537 54.9429 40.801 54.9429H40.5286C36.6275 54.9429 33.0755 53.448 30.4143 50.9997V64.9209C30.4143 73.2659 23.5778 80 15.2669 80C7.03115 80 0.256348 73.3268 0.256348 65.0572C0.256348 59.81 2.96088 55.1945 7.05195 52.5287C2.96088 49.8628 0.256348 45.2473 0.256348 40.0001C0.256348 34.7529 2.96101 30.1373 7.05221 27.4715ZM30.4143 40.0001C30.4143 45.5861 34.9427 50.1144 40.5286 50.1144H40.801C46.387 50.1144 50.9153 45.5861 50.9153 40.0001C50.9153 34.4141 46.387 29.8859 40.801 29.8859H40.5286C34.9427 29.8859 30.4143 34.4141 30.4143 40.0001ZM25.5858 29.8859H15.1992C9.61315 29.8859 5.08488 34.4141 5.08488 40.0001C5.08488 45.5748 9.59488 50.096 15.1651 50.1144H15.181H25.5858V29.8859ZM15.1992 54.9429C15.1878 54.9429 15.1765 54.9429 15.1651 54.9429C9.59488 54.9612 5.08488 59.4825 5.08488 65.0572C5.08488 70.6263 9.66395 75.1715 15.2669 75.1715C20.945 75.1715 25.5858 70.5653 25.5858 64.9209V54.9429H15.1992ZM25.5858 25.0571H15.1992C9.61315 25.0571 5.08488 20.5288 5.08488 14.9428C5.08488 9.3568 9.61315 4.82853 15.1992 4.82853H25.5858V25.0571ZM40.801 25.0571H30.4143V4.82853H40.801C46.387 4.82853 50.9153 9.3568 50.9153 14.9428C50.9153 20.5288 46.387 25.0571 40.801 25.0571Z"
    fill="#F8F8F8" />
</svg>
