<svg width="32" height="32" viewBox="0 0 32 32" fill="none" xmlns="http://www.w3.org/2000/svg">
  <g clip-path="url(#clip0_100_1588)">
    <path
      d="M27.3333 25.3333H4.66666C3.93332 25.3333 3.33332 25.9333 3.33332 26.6667C3.33332 27.4 3.93332 28 4.66666 28H27.3333C28.0667 28 28.6667 27.4 28.6667 26.6667C28.6667 25.9333 28.0667 25.3333 27.3333 25.3333ZM29.4267 12.8533C29.1333 11.7867 28.04 11.16 26.9733 11.44L19.8933 13.3333L11.28 5.30666C10.92 4.95999 10.4 4.83999 9.91999 4.97332C9.01332 5.22666 8.58666 6.26666 9.05332 7.07999L13.64 15.0267L7.01332 16.8L4.91999 15.1467C4.58666 14.8933 4.15999 14.8 3.74666 14.9067L3.30666 15.0267C2.87999 15.1333 2.67999 15.6267 2.90666 16L5.41332 20.3333C5.71999 20.8533 6.33332 21.1067 6.90666 20.96L28 15.3067C29.0667 15.0133 29.7067 13.92 29.4267 12.8533Z"
      fill="currentColor" />
  </g>
  <defs>
    <clipPath id="clip0_100_1588">
      <rect width="32" height="32" fill="white" />
    </clipPath>
  </defs>
</svg>
