<svg width="32" height="32" viewBox="0 0 32 32" fill="none" xmlns="http://www.w3.org/2000/svg">
  <g clip-path="url(#clip0_231_3455)">
    <path
      d="M21.6533 29.3333C21.2997 29.3333 20.9605 29.1929 20.7105 28.9428C20.4604 28.6928 20.32 28.3536 20.32 28V24.5333C20.3614 24.1346 20.3187 23.7315 20.1947 23.3503C20.0707 22.9691 19.8681 22.6181 19.6 22.32C19.434 22.14 19.3208 21.9177 19.2728 21.6776C19.2247 21.4374 19.2438 21.1887 19.3278 20.9587C19.4118 20.7287 19.5576 20.5263 19.749 20.3736C19.9405 20.221 20.1703 20.124 20.4133 20.0933C23.6666 19.7067 26.6666 18.6667 26.6666 13.0267C26.6677 11.9734 26.3568 10.9435 25.7733 10.0667C25.2348 9.2595 25.0383 8.27181 25.2266 7.31999C25.3468 6.69909 25.3468 6.0609 25.2266 5.43999C24.2282 5.77756 23.2882 6.26782 22.44 6.89333C22.2796 7.00721 22.096 7.0842 21.9024 7.11878C21.7087 7.15336 21.5098 7.14467 21.32 7.09333C18.9137 6.4134 16.3662 6.4134 13.96 7.09333C13.7701 7.14467 13.5712 7.15336 13.3776 7.11878C13.1839 7.0842 13.0003 7.00721 12.84 6.89333C11.9865 6.26058 11.0365 5.76981 10.0266 5.43999C9.89984 6.06025 9.89984 6.69974 10.0266 7.31999C10.2014 8.2838 9.99592 9.27783 9.4533 10.0933C8.87231 10.9763 8.56183 12.0097 8.55997 13.0667C8.55997 18.2533 11.0666 19.64 14.8266 20.12C15.0727 20.1505 15.3053 20.249 15.4985 20.4045C15.6916 20.5599 15.8376 20.7662 15.92 21C15.9975 21.2269 16.0124 21.4705 15.9631 21.7051C15.9138 21.9398 15.8022 22.1568 15.64 22.3333C15.3806 22.6105 15.1816 22.9385 15.0554 23.2965C14.9291 23.6545 14.8785 24.0348 14.9066 24.4133V28C14.9066 28.3536 14.7662 28.6928 14.5161 28.9428C14.2661 29.1929 13.9269 29.3333 13.5733 29.3333C13.2197 29.3333 12.8805 29.1929 12.6305 28.9428C12.3804 28.6928 12.24 28.3536 12.24 28V27.24C10.9298 27.3907 9.60267 27.2151 8.37674 26.7289C7.15081 26.2427 6.06409 25.461 5.2133 24.4533C4.77597 23.9686 4.25127 23.5705 3.66663 23.28C3.49679 23.2362 3.33723 23.1594 3.19707 23.054C3.05691 22.9485 2.93888 22.8165 2.84974 22.6655C2.76059 22.5144 2.70207 22.3473 2.67752 22.1736C2.65297 22 2.66286 21.8232 2.70663 21.6533C2.75041 21.4835 2.8272 21.3239 2.93264 21.1838C3.03808 21.0436 3.17009 20.9256 3.32114 20.8364C3.47219 20.7473 3.63932 20.6888 3.81299 20.6642C3.98665 20.6397 4.16346 20.6496 4.3333 20.6933C5.35897 21.067 6.27543 21.6902 6.99997 22.5067C8.3333 23.84 9.66663 25.0133 12.2 24.5333C12.1554 23.8175 12.2598 23.1001 12.5066 22.4267C9.75997 21.7333 5.83997 19.76 5.83997 13.0933C5.83645 11.5142 6.30038 9.96929 7.1733 8.65333C7.33544 8.4104 7.39753 8.11426 7.34663 7.82666C7.0772 6.38742 7.23002 4.90097 7.78663 3.54666C7.86226 3.36608 7.97673 3.20437 8.12191 3.07302C8.26709 2.94167 8.43941 2.8439 8.62663 2.78666C9.07997 2.65333 10.7066 2.38666 13.7866 4.38666C16.2799 3.78666 18.88 3.78666 21.3733 4.38666C24.4533 2.38666 26.08 2.63999 26.52 2.78666C26.7072 2.8439 26.8795 2.94167 27.0247 3.07302C27.1699 3.20437 27.2843 3.36608 27.36 3.54666C27.9177 4.90537 28.0705 6.3964 27.8 7.83999C27.7727 7.97006 27.7716 8.10427 27.7968 8.23476C27.822 8.36525 27.8729 8.48941 27.9466 8.59999C28.8221 9.91974 29.2861 11.4696 29.28 13.0533C29.28 19.8133 25.3866 21.7733 22.6133 22.3867C22.8576 23.1021 22.9573 23.859 22.9066 24.6133V28C22.9072 28.3402 22.7778 28.6677 22.5448 28.9156C22.3118 29.1635 21.9929 29.3129 21.6533 29.3333Z"
      fill="currentColor" />
  </g>
  <defs>
    <clipPath id="clip0_231_3455">
      <rect width="32" height="32" fill="white" />
    </clipPath>
  </defs>
</svg>
