<svg width="32" height="32" viewBox="0 0 32 32" fill="none" xmlns="http://www.w3.org/2000/svg">
  <path
    d="M15.9995 12C18.1995 12 19.9995 13.8 19.9995 16C19.9995 18.2 18.1995 20 15.9995 20C13.7995 20 11.9995 18.2 11.9995 16C11.9995 13.8 13.7995 12 15.9995 12ZM15.9995 9.33333C12.3195 9.33333 9.33282 12.32 9.33282 16C9.33282 19.68 12.3195 22.6667 15.9995 22.6667C19.6795 22.6667 22.6662 19.68 22.6662 16C22.6662 12.32 19.6795 9.33333 15.9995 9.33333ZM2.66616 17.3333H5.33282C6.06616 17.3333 6.66616 16.7333 6.66616 16C6.66616 15.2667 6.06616 14.6667 5.33282 14.6667H2.66616C1.93282 14.6667 1.33282 15.2667 1.33282 16C1.33282 16.7333 1.93282 17.3333 2.66616 17.3333ZM26.6662 17.3333H29.3328C30.0662 17.3333 30.6662 16.7333 30.6662 16C30.6662 15.2667 30.0662 14.6667 29.3328 14.6667H26.6662C25.9328 14.6667 25.3328 15.2667 25.3328 16C25.3328 16.7333 25.9328 17.3333 26.6662 17.3333ZM14.6662 2.66666V5.33333C14.6662 6.06666 15.2662 6.66666 15.9995 6.66666C16.7328 6.66666 17.3328 6.06666 17.3328 5.33333V2.66666C17.3328 1.93333 16.7328 1.33333 15.9995 1.33333C15.2662 1.33333 14.6662 1.93333 14.6662 2.66666ZM14.6662 26.6667V29.3333C14.6662 30.0667 15.2662 30.6667 15.9995 30.6667C16.7328 30.6667 17.3328 30.0667 17.3328 29.3333V26.6667C17.3328 25.9333 16.7328 25.3333 15.9995 25.3333C15.2662 25.3333 14.6662 25.9333 14.6662 26.6667ZM7.98616 6.10666C7.46616 5.58666 6.61282 5.58666 6.10616 6.10666C5.58616 6.62666 5.58616 7.47999 6.10616 7.98666L7.51949 9.4C8.03949 9.92 8.89283 9.92 9.39949 9.4C9.90616 8.88 9.91949 8.02666 9.39949 7.51999L7.98616 6.10666ZM24.4795 22.6C23.9595 22.08 23.1062 22.08 22.5995 22.6C22.0795 23.12 22.0795 23.9733 22.5995 24.48L24.0128 25.8933C24.5328 26.4133 25.3862 26.4133 25.8928 25.8933C26.4128 25.3733 26.4128 24.52 25.8928 24.0133L24.4795 22.6ZM25.8928 7.98666C26.4128 7.46666 26.4128 6.61333 25.8928 6.10666C25.3728 5.58666 24.5195 5.58666 24.0128 6.10666L22.5995 7.51999C22.0795 8.03999 22.0795 8.89333 22.5995 9.4C23.1195 9.90666 23.9728 9.92 24.4795 9.4L25.8928 7.98666ZM9.39949 24.48C9.91949 23.96 9.91949 23.1067 9.39949 22.6C8.87949 22.08 8.02616 22.08 7.51949 22.6L6.10616 24.0133C5.58616 24.5333 5.58616 25.3867 6.10616 25.8933C6.62616 26.4 7.47949 26.4133 7.98616 25.8933L9.39949 24.48Z"
    fill="currentColor" />
</svg>
