<svg width="32" height="32" viewBox="0 0 32 32" fill="none" xmlns="http://www.w3.org/2000/svg">
  <path
    d="M26.6667 29.3333H24.44C23.7328 29.3333 23.0545 29.0524 22.5544 28.5523C22.0543 28.0522 21.7733 27.3739 21.7733 26.6667V19.5067C21.7852 19.2259 21.7004 18.9495 21.5329 18.7238C21.3654 18.498 21.1255 18.3367 20.8533 18.2667C20.695 18.2426 20.5333 18.2527 20.3792 18.2964C20.2251 18.3401 20.0821 18.4163 19.96 18.52C19.8343 18.6267 19.7334 18.7595 19.6643 18.9092C19.5952 19.0589 19.5596 19.2218 19.56 19.3867V26.6667C19.56 27.3739 19.279 28.0522 18.779 28.5523C18.2789 29.0524 17.6006 29.3333 16.8933 29.3333H14.6667C13.9594 29.3333 13.2811 29.0524 12.781 28.5523C12.281 28.0522 12 27.3739 12 26.6667V19.3867C12 17.0881 12.9131 14.8837 14.5384 13.2584C16.1637 11.6331 18.3681 10.72 20.6667 10.72C22.9652 10.72 25.1696 11.6331 26.7949 13.2584C28.4202 14.8837 29.3333 17.0881 29.3333 19.3867V26.6667C29.3333 27.3739 29.0524 28.0522 28.5523 28.5523C28.0522 29.0524 27.3739 29.3333 26.6667 29.3333ZM20.6667 15.5867C20.8753 15.5735 21.0847 15.5735 21.2933 15.5867C22.1885 15.7589 22.9944 16.2407 23.5698 16.9478C24.1452 17.6548 24.4533 18.5419 24.44 19.4533V26.6667H26.6667V19.3867C26.6667 17.7954 26.0345 16.2692 24.9093 15.144C23.7841 14.0188 22.258 13.3867 20.6667 13.3867C19.0754 13.3867 17.5492 14.0188 16.424 15.144C15.2988 16.2692 14.6667 17.7954 14.6667 19.3867V26.6667H16.8933V19.3867C16.8933 18.3834 17.29 17.4209 17.9969 16.709C18.7038 15.9972 19.6635 15.5937 20.6667 15.5867Z"
    fill="currentColor" />
  <path
    d="M8.00002 29.3333H5.33335C4.62611 29.3333 3.94783 29.0524 3.44774 28.5523C2.94764 28.0522 2.66669 27.3739 2.66669 26.6667V13.3333C2.66669 12.6261 2.94764 11.9478 3.44774 11.4477C3.94783 10.9476 4.62611 10.6667 5.33335 10.6667H8.00002C8.70726 10.6667 9.38554 10.9476 9.88564 11.4477C10.3857 11.9478 10.6667 12.6261 10.6667 13.3333V26.6667C10.6667 27.3739 10.3857 28.0522 9.88564 28.5523C9.38554 29.0524 8.70726 29.3333 8.00002 29.3333ZM5.33335 13.3333V26.6667H8.00002V13.3333H5.33335Z"
    fill="currentColor" />
  <path
    d="M6.66669 9.33335C5.87556 9.33335 5.1022 9.09875 4.44441 8.65922C3.78661 8.2197 3.27392 7.59498 2.97117 6.86408C2.66842 6.13317 2.58921 5.32891 2.74355 4.55298C2.89789 3.77706 3.27885 3.06433 3.83826 2.50492C4.39767 1.94551 5.1104 1.56455 5.88633 1.4102C6.66225 1.25586 7.46652 1.33508 8.19742 1.63783C8.92833 1.94058 9.55304 2.45327 9.99257 3.11106C10.4321 3.76886 10.6667 4.54222 10.6667 5.33335C10.6667 6.39421 10.2453 7.41163 9.49512 8.16177C8.74497 8.91192 7.72755 9.33335 6.66669 9.33335ZM6.66669 4.00001C6.40298 4.00001 6.14519 4.07821 5.92593 4.22472C5.70666 4.37123 5.53577 4.57947 5.43485 4.8231C5.33393 5.06674 5.30753 5.33482 5.35898 5.59347C5.41042 5.85211 5.53741 6.08968 5.72388 6.27615C5.91035 6.46262 6.14793 6.58961 6.40657 6.64106C6.66521 6.69251 6.9333 6.6661 7.17693 6.56519C7.42057 6.46427 7.62881 6.29337 7.77532 6.07411C7.92182 5.85484 8.00002 5.59705 8.00002 5.33335C8.00002 4.97972 7.85955 4.64058 7.6095 4.39054C7.35945 4.14049 7.02031 4.00001 6.66669 4.00001Z"
    fill="currentColor" />
</svg>
