<svg width="38" height="80" viewBox="0 0 38 80" fill="none" xmlns="http://www.w3.org/2000/svg">
  <path
    d="M25.9488 8.91654C22.5912 4.93289 19.7 0.886988 19.1093 0.0466836C19.0471 -0.0155612 18.9538 -0.0155612 18.8917 0.0466836C18.301 0.886988 15.4097 4.93289 12.0521 8.91654C-16.7671 45.6719 16.5911 70.4766 16.5911 70.4766L16.8709 70.6633C17.1196 74.4912 17.7414 80 17.7414 80H18.9849H20.2285C20.2285 80 20.8503 74.5223 21.099 70.6633L21.3788 70.4454C21.4098 70.4766 54.7681 45.6719 25.9488 8.91654ZM18.9849 69.9163C18.9849 69.9163 17.4927 68.6403 17.0885 67.9869V67.9244L18.8917 27.9012C18.8917 27.7767 19.0782 27.7767 19.0782 27.9012L20.8813 67.9244V67.9869C20.4772 68.6403 18.9849 69.9163 18.9849 69.9163Z"
    fill="currentColor" />
</svg>
