<svg width="80" height="80" viewBox="0 0 80 80" fill="none" xmlns="http://www.w3.org/2000/svg">
  <path
    d="M36.6396 1.06768C38.6396 -0.0648183 41.1896 -0.0698183 43.1396 1.06768L72.9996 17.9002C74.8671 18.9502 76.1171 21.0327 76.0996 23.1852V56.9352C76.1121 59.1777 74.7396 61.3052 72.7696 62.3352L43.0696 79.0902C42.0538 79.6515 40.9061 79.9307 39.746 79.8986C38.5858 79.8665 37.4553 79.5243 36.4721 78.9077L27.5596 73.7577C26.9521 73.3952 26.2696 73.1077 25.8396 72.5202C26.2196 72.0102 26.8946 71.9452 27.4446 71.7202C28.6846 71.3252 29.8196 70.7202 30.9596 70.0802C31.2471 69.8802 31.5996 69.9552 31.8746 70.1352L39.4746 74.5302C40.0171 74.8427 40.5671 74.4302 41.0321 74.1677L70.1946 57.7102C70.5546 57.5352 70.7546 57.1552 70.7246 56.7602V23.3352C70.7646 22.8852 70.5071 22.4752 70.0996 22.2927L40.4746 5.61018C40.3039 5.4921 40.1013 5.42864 39.8937 5.42819C39.6861 5.42774 39.4833 5.49034 39.3121 5.60768L9.72959 22.3252C9.32959 22.5077 9.05459 22.9127 9.10459 23.3627V56.7877C9.06959 57.1827 9.27959 57.5552 9.64209 57.7252L17.5471 62.1877C19.0321 62.9877 20.8546 63.4377 22.4896 62.8502C23.2051 62.5805 23.821 62.0986 24.2549 61.469C24.6888 60.8394 24.9198 60.0923 24.9171 59.3277L24.9246 26.1027C24.8896 25.6102 25.3546 25.2027 25.8321 25.2527H29.6321C30.1321 25.2402 30.5246 25.7702 30.4571 26.2652L30.4496 59.7002C30.4521 62.6702 29.2321 65.9002 26.4846 67.3577C23.0996 69.1077 18.9146 68.7402 15.5696 67.0577L7.06959 62.3577C5.06959 61.3577 3.72709 59.1977 3.73959 56.9577V23.2077C3.7479 22.1108 4.04946 21.036 4.61301 20.0949C5.17655 19.1537 5.98156 18.3804 6.94459 17.8552L36.6396 1.06768ZM45.2496 24.4627C49.5671 24.2127 54.1896 24.2977 58.0746 26.4252C61.0821 28.0552 62.7496 31.4752 62.8046 34.8202C62.7196 35.2702 62.2496 35.5202 61.8196 35.4877C60.5696 35.4852 59.3146 35.5052 58.0596 35.4802C57.5271 35.5002 57.2196 35.0102 57.1521 34.5402C56.7921 32.9402 55.9196 31.3577 54.4146 30.5852C52.1046 29.4277 49.4246 29.4852 46.9046 29.5102C45.0646 29.6102 43.0871 29.7677 41.5296 30.8477C40.3296 31.6677 39.9696 33.3477 40.3971 34.6527C40.7971 35.6102 41.9046 35.9177 42.8071 36.2027C48.0121 37.5627 53.5246 37.4527 58.6321 39.2202C60.7446 39.9502 62.8121 41.3702 63.5371 43.5827C64.4821 46.5477 64.0696 50.0927 61.9621 52.4727C60.2521 54.4327 57.7621 55.4727 55.2746 56.0777C51.9671 56.8152 48.5371 56.8327 45.1796 56.5027C42.0221 56.1427 38.7371 55.3127 36.2996 53.1627C34.2146 51.3527 33.1996 48.5327 33.2996 45.8127C33.3246 45.3527 33.7821 45.0327 34.2246 45.0702H37.9746C38.4796 45.0352 38.8496 45.4702 38.8746 45.9452C39.1071 47.4452 39.6796 49.0702 41.0096 49.9452C43.5746 51.6002 46.7921 51.4852 49.7271 51.5327C52.1596 51.4252 54.8896 51.3927 56.8771 49.7827C57.9271 48.8652 58.2346 47.3327 57.9521 46.0127C57.6446 44.8977 56.4521 44.3802 55.4521 44.0127C50.3146 42.3877 44.7396 42.9777 39.6521 41.1377C37.5871 40.4077 35.5896 39.0277 34.7971 36.9052C33.6896 33.9052 34.1971 30.1877 36.5296 27.8877C38.7796 25.6002 42.0796 24.7177 45.2046 24.4027L45.2496 24.4627Z"
    fill="currentColor" />
</svg>
