<svg width="32" height="32" viewBox="0 0 32 32" fill="none" xmlns="http://www.w3.org/2000/svg">
  <path
    d="M20.7777 25.3334C20.1666 25.3334 19.6435 25.1158 19.2084 24.6807C18.7733 24.2454 18.5557 23.7221 18.5557 23.111V8.88902C18.5557 8.27791 18.7733 7.75469 19.2084 7.31935C19.6435 6.88424 20.1666 6.66669 20.7777 6.66669H22C22.6112 6.66669 23.1343 6.88424 23.5694 7.31935C24.0047 7.75469 24.2224 8.27791 24.2224 8.88902V23.111C24.2224 23.7221 24.0047 24.2454 23.5694 24.6807C23.1343 25.1158 22.6112 25.3334 22 25.3334H20.7777ZM10 25.3334C9.38893 25.3334 8.86582 25.1158 8.43071 24.6807C7.99538 24.2454 7.77771 23.7221 7.77771 23.111V8.88902C7.77771 8.27791 7.99538 7.75469 8.43071 7.31935C8.86582 6.88424 9.38893 6.66669 10 6.66669H11.2224C11.8335 6.66669 12.3566 6.88424 12.7917 7.31935C13.2268 7.75469 13.4444 8.27791 13.4444 8.88902V23.111C13.4444 23.7221 13.2268 24.2454 12.7917 24.6807C12.3566 25.1158 11.8335 25.3334 11.2224 25.3334H10Z"
    fill="currentColor" />
</svg>
