<svg width="32" height="32" viewBox="0 0 32 32" fill="none" xmlns="http://www.w3.org/2000/svg">
  <path
    d="M10.6666 23.711V9.111C10.6666 8.77767 10.7777 8.50911 11 8.30533C11.2222 8.10178 11.4814 8 11.7776 8C11.8741 8 11.9723 8.01289 12.0723 8.03867C12.1723 8.06467 12.2704 8.10356 12.3666 8.15533L23.8556 15.4777C24.0258 15.5961 24.1536 15.7331 24.239 15.8887C24.3241 16.0442 24.3666 16.2183 24.3666 16.411C24.3666 16.6037 24.3241 16.7778 24.239 16.9333C24.1536 17.0889 24.0258 17.2259 23.8556 17.3443L12.3666 24.6667C12.2704 24.7184 12.1723 24.7573 12.0723 24.7833C11.9723 24.8091 11.8741 24.822 11.7776 24.822C11.4814 24.822 11.2222 24.7202 11 24.5167C10.7777 24.3129 10.6666 24.0443 10.6666 23.711Z"
    fill="currentColor" />
</svg>
