<svg width="72" height="80" viewBox="0 0 72 80" fill="none" xmlns="http://www.w3.org/2000/svg">
  <path
    d="M71.1037 40.0071C71.1037 35.3562 65.2793 30.9485 56.3495 28.2152C58.4102 19.1136 57.4943 11.8724 53.4587 9.55411C52.5285 9.01031 51.4409 8.75271 50.2531 8.75271V11.944C50.9114 11.944 51.4409 12.0728 51.8846 12.3161C53.8308 13.4323 54.6751 17.6826 54.0168 23.1492C53.8594 24.4944 53.6018 25.9112 53.287 27.3565C50.4821 26.6696 47.4196 26.1401 44.1997 25.7967C42.2678 23.1492 40.2643 20.745 38.2465 18.6414C42.9118 14.3052 47.2908 11.9297 50.2675 11.9297V8.7384C46.332 8.7384 41.1802 11.5433 35.9711 16.4089C30.7621 11.5719 25.6102 8.79565 21.6748 8.79565V11.9869C24.6371 11.9869 29.0305 14.3482 33.6957 18.6557C31.6922 20.7593 29.6888 23.1492 27.7854 25.7967C24.5512 26.1401 21.4888 26.6696 18.6839 27.3709C18.3547 25.9398 18.1115 24.5517 17.9397 23.2208C17.2671 17.7541 18.0971 13.5038 20.0291 12.3733C20.4584 12.1157 21.0165 12.0012 21.6748 12.0012V8.80996C20.4727 8.80996 19.3851 9.06755 18.4406 9.61135C14.4193 11.9297 13.5177 19.1565 15.5928 28.2295C6.69156 30.9771 0.895752 35.3705 0.895752 40.0071C0.895752 44.6581 6.72018 49.0658 15.65 51.7991C13.5893 60.9007 14.5052 68.1419 18.5408 70.4602C19.471 71.004 20.5586 71.2616 21.7607 71.2616C25.6961 71.2616 30.8479 68.4567 36.057 63.5911C41.2661 68.4281 46.4179 71.2043 50.3533 71.2043C51.5554 71.2043 52.643 70.9467 53.5875 70.4029C57.6088 68.0846 58.5104 60.8577 56.4353 51.7848C65.3079 49.0515 71.1037 44.6438 71.1037 40.0071ZM52.4713 30.462C51.9418 32.308 51.2835 34.2113 50.5394 36.1147C49.9526 34.9698 49.3373 33.825 48.6647 32.6801C48.0064 31.5353 47.3052 30.419 46.6039 29.3314C48.6361 29.6319 50.5966 30.004 52.4713 30.462ZM45.917 45.7028C44.8008 47.6347 43.6559 49.4665 42.4682 51.1694C40.3359 51.3555 38.175 51.4557 35.9998 51.4557C33.8388 51.4557 31.6779 51.3555 29.56 51.1838C28.3722 49.4808 27.213 47.6633 26.0968 45.7457C25.0092 43.871 24.0217 41.9677 23.1202 40.0501C24.0074 38.1325 25.0092 36.2148 26.0825 34.3401C27.1987 32.4082 28.3436 30.5764 29.5313 28.8735C31.6636 28.6874 33.8245 28.5873 35.9998 28.5873C38.1607 28.5873 40.3216 28.6874 42.4395 28.8592C43.6273 30.5621 44.7865 32.3796 45.9027 34.2972C46.9903 36.1719 47.9778 38.0752 48.8793 39.9928C47.9778 41.9105 46.9903 43.8281 45.917 45.7028ZM50.5394 43.8424C51.3121 45.76 51.9704 47.6777 52.5142 49.538C50.6395 49.996 48.6647 50.3824 46.6182 50.6829C47.3195 49.581 48.0207 48.4504 48.679 47.2913C49.3373 46.1464 49.9526 44.9872 50.5394 43.8424ZM36.0284 59.1119C34.6975 57.738 33.3666 56.2068 32.05 54.5324C33.338 54.5897 34.6546 54.6326 35.9854 54.6326C37.3306 54.6326 38.6615 54.604 39.9638 54.5324C38.6758 56.2068 37.345 57.738 36.0284 59.1119ZM25.3813 50.6829C23.3491 50.3824 21.3886 50.0103 19.5139 49.5523C20.0434 47.7063 20.7017 45.803 21.4458 43.8996C22.0326 45.0445 22.6479 46.1893 23.3205 47.3342C23.9931 48.479 24.68 49.5953 25.3813 50.6829ZM35.9568 20.9024C37.2877 22.2763 38.6186 23.8075 39.9352 25.4819C38.6472 25.4246 37.3306 25.3817 35.9998 25.3817C34.6546 25.3817 33.3237 25.4103 32.0214 25.4819C33.3094 23.8075 34.6402 22.2763 35.9568 20.9024ZM25.3669 29.3314C24.6657 30.4333 23.9645 31.5639 23.3062 32.723C22.6479 33.8679 22.0326 35.0127 21.4458 36.1576C20.6731 34.24 20.0148 32.3223 19.471 30.462C21.3457 30.0183 23.3205 29.6319 25.3669 29.3314ZM12.4158 47.2483C7.34985 45.0874 4.07271 42.2539 4.07271 40.0071C4.07271 37.7604 7.34985 34.9126 12.4158 32.766C13.6465 32.2365 14.9917 31.7642 16.3799 31.3206C17.1956 34.1255 18.2689 37.0448 19.5998 40.0358C18.2832 43.0124 17.2242 45.9174 16.4228 48.708C15.006 48.2644 13.6608 47.7778 12.4158 47.2483ZM20.1149 67.6982C18.1687 66.582 17.3244 62.3317 17.9827 56.8651C18.1401 55.5199 18.3977 54.1031 18.7125 52.6578C21.5174 53.3447 24.5799 53.8742 27.7998 54.2176C29.7317 56.8651 31.7352 59.2693 33.753 61.3729C29.0877 65.7091 24.7087 68.0846 21.732 68.0846C21.0881 68.0703 20.5443 67.9415 20.1149 67.6982ZM54.0598 56.7935C54.7324 62.2602 53.9024 66.5105 51.9704 67.641C51.5411 67.8986 50.983 68.0131 50.3247 68.0131C47.3624 68.0131 42.969 65.6518 38.3038 61.3443C40.3073 59.2406 42.3107 56.8508 44.2141 54.2033C47.4483 53.8598 50.5107 53.3304 53.3156 52.6291C53.6448 54.0745 53.9024 55.4626 54.0598 56.7935ZM59.5694 47.2483C58.3387 47.7778 56.9935 48.2501 55.6053 48.6937C54.7896 45.8888 53.7163 42.9694 52.3854 39.9785C53.702 37.0019 54.761 34.0969 55.5624 31.3063C56.9792 31.7499 58.3243 32.2365 59.5837 32.766C64.6497 34.9269 67.9268 37.7604 67.9268 40.0071C67.9125 42.2539 64.6353 45.1017 59.5694 47.2483Z"
    fill="currentColor" />
  <path
    d="M35.986 46.5471C39.5979 46.5471 42.526 43.619 42.526 40.0071C42.526 36.3952 39.5979 33.4672 35.986 33.4672C32.3741 33.4672 29.446 36.3952 29.446 40.0071C29.446 43.619 32.3741 46.5471 35.986 46.5471Z"
    fill="currentColor" />
  <defs>
</defs>
</svg>
