<svg width="32" height="32" viewBox="0 0 32 32" fill="none" xmlns="http://www.w3.org/2000/svg">
  <g clip-path="url(#clip0_100_1600)">
    <path
      d="M12.2533 8.46668C9.53333 11.52 7.66667 15.9067 7.49333 16.32L4.48 15.0267C3.61333 14.6533 3.4 13.52 4.06667 12.8534L8.08 8.84002C8.70667 8.21335 9.61333 7.93335 10.4933 8.10668L12.2533 8.46668ZM14.24 22.0133C14.64 22.4133 15.2267 22.52 15.7333 22.28C17.28 21.56 20.6 19.8667 22.7467 17.72C28.8667 11.6 28.92 6.61335 28.56 4.48002C28.4667 3.94668 28.04 3.52002 27.5067 3.42668C25.3733 3.06668 20.3867 3.12002 14.2667 9.24002C12.12 11.3867 10.44 14.7067 9.70667 16.2533C9.46667 16.76 9.58667 17.36 9.97333 17.7467L14.24 22.0133ZM23.5333 19.7467C20.48 22.4667 16.0933 24.3333 15.68 24.5067L16.9733 27.52C17.3467 28.3867 18.48 28.6 19.1467 27.9334L23.16 23.92C23.7867 23.2934 24.0667 22.3867 23.8933 21.5067L23.5333 19.7467ZM11.92 23.2133C12.1867 24.6267 11.72 25.9334 10.8267 26.8267C9.8 27.8534 6.61333 28.6133 4.54667 29.0133C3.62667 29.1867 2.81333 28.3734 2.98667 27.4534C3.38667 25.3867 4.13333 22.2 5.17334 21.1733C6.06667 20.28 7.37333 19.8133 8.78667 20.08C10.3467 20.3734 11.6267 21.6533 11.92 23.2133ZM17.3333 12C17.3333 10.5333 18.5333 9.33335 20 9.33335C21.4667 9.33335 22.6667 10.5333 22.6667 12C22.6667 13.4667 21.4667 14.6667 20 14.6667C18.5333 14.6667 17.3333 13.4667 17.3333 12Z"
      fill="currentColor" />
  </g>
  <defs>
    <clipPath id="clip0_100_1600">
      <rect width="32" height="32" fill="white" />
    </clipPath>
  </defs>
</svg>
