<svg width="32" height="32" viewBox="0 0 32 32" fill="none" xmlns="http://www.w3.org/2000/svg">
  <g clip-path="url(#clip0_231_3474)">
    <path
      d="M8.23998 26.6667C9.84529 26.6667 11.1466 25.3653 11.1466 23.76C11.1466 22.1547 9.84529 20.8533 8.23998 20.8533C6.63467 20.8533 5.33331 22.1547 5.33331 23.76C5.33331 25.3653 6.63467 26.6667 8.23998 26.6667Z"
      fill="currentColor" />
    <path
      d="M7.45331 13.64C6.33331 13.4533 5.33331 14.3733 5.33331 15.5067C5.33331 16.4533 6.03998 17.2133 6.97331 17.3733C10.8666 18.0533 13.9333 21.1333 14.6266 25.0267C14.7866 25.96 15.5466 26.6667 16.4933 26.6667C17.6266 26.6667 18.5466 25.6667 18.3733 24.5467C17.4666 18.9467 13.0533 14.5333 7.45331 13.64ZM7.41331 6.02667C6.30665 5.90667 5.33331 6.8 5.33331 7.90667C5.33331 8.88 6.06665 9.68 7.02665 9.77334C15.04 10.5733 21.4133 16.9467 22.2133 24.96C22.3066 25.9333 23.1066 26.6667 24.08 26.6667C25.2 26.6667 26.08 25.6933 25.9733 24.5867C25 14.8 17.2133 7 7.41331 6.02667Z"
      fill="currentColor" />
  </g>
  <defs>
    <clipPath id="clip0_231_3474">
      <rect width="32" height="32" fill="white" />
    </clipPath>
  </defs>
</svg>
