<svg width="32" height="32" viewBox="0 0 32 32" fill="none" xmlns="http://www.w3.org/2000/svg">
  <path d="M4.88867 27.1113H24.8887V29.333H2.66699V7.11133H4.88867V27.1113Z" fill="currentColor" />
  <path fill-rule="evenodd" clip-rule="evenodd"
    d="M29.333 24.8887H7.11133V2.66699H29.333V24.8887ZM19.333 9.14453C20.3921 9.44073 21.2497 10.0221 21.9053 10.8887C22.5608 11.7553 22.8886 12.7368 22.8887 13.833C22.8887 14.9293 22.5596 15.9096 21.9004 16.7725C21.2412 17.6355 20.3849 18.2188 19.333 18.5225V19.667C20.7108 19.3559 21.8335 18.6585 22.7002 17.5752C23.5669 16.4919 24 15.2441 24 13.833C23.9999 12.4221 23.5667 11.175 22.7002 10.0918C21.8335 9.00846 20.7108 8.31111 19.333 8V9.14453ZM14.667 11.8496H12V15.8496H14.667L18 19.1836V8.5166L14.667 11.8496ZM19.1113 16.6055C19.6853 16.3981 20.1437 16.0396 20.4863 15.5303C20.8288 15.0211 21 14.4606 21 13.8496C20.9999 13.2276 20.83 12.6614 20.4912 12.1504C20.1524 11.6393 19.6927 11.2797 19.1113 11.0723V16.6055Z"
    fill="currentColor" />
</svg>
