<svg width="32" height="32" viewBox="0 0 32 32" fill="none" xmlns="http://www.w3.org/2000/svg">
  <path
    d="M22.589 25.8557C22.2557 26.0852 21.9112 26.2963 21.5557 26.489C21.2001 26.6814 20.8297 26.8554 20.4443 27.011C20.1555 27.137 19.861 27.137 19.561 27.011C19.261 26.8852 19.0518 26.6741 18.9333 26.3777C18.8149 26.1037 18.8241 25.8314 18.961 25.561C19.0981 25.2908 19.3111 25.0927 19.6 24.9667C19.8518 24.8778 20.0907 24.7741 20.3167 24.6557C20.5427 24.537 20.7668 24.3962 20.989 24.2333L15.8443 19.089V23.989C15.8443 24.4852 15.6166 24.8278 15.161 25.0167C14.7054 25.2055 14.3037 25.1259 13.9557 24.7777L9.17767 20H4.95567C4.637 20 4.37211 19.8944 4.161 19.6833C3.94989 19.4722 3.84434 19.2074 3.84434 18.889V13.111C3.84434 12.7925 3.94989 12.5278 4.161 12.3167C4.37211 12.1055 4.637 12 4.95567 12H8.73334L2.489 5.75565C2.27411 5.54076 2.17034 5.27776 2.17767 4.96665C2.18523 4.65554 2.29634 4.39254 2.511 4.17765C2.72589 3.96299 2.98889 3.85565 3.3 3.85565C3.61111 3.85565 3.87411 3.96299 4.089 4.17765L27.6667 27.7557C27.8816 27.9703 27.989 28.2332 27.989 28.5443C27.989 28.8554 27.8816 29.1184 27.6667 29.3333C27.4518 29.5482 27.1851 29.6557 26.8667 29.6557C26.5482 29.6557 26.2816 29.5482 26.0667 29.3333L22.589 25.8557ZM25.6223 15.9667C25.6223 13.974 25.0704 12.1648 23.9667 10.539C22.8629 8.91298 21.4073 7.72221 19.6 6.96665C19.3111 6.84065 19.1037 6.64254 18.9777 6.37232C18.8519 6.10187 18.8446 5.82965 18.9557 5.55565C19.0741 5.25921 19.2833 5.05176 19.5833 4.93332C19.8833 4.81487 20.1889 4.81854 20.5 4.94432C22.7149 5.87032 24.4927 7.32221 25.8333 9.29999C27.174 11.2778 27.8443 13.5 27.8443 15.9667C27.8443 16.774 27.7666 17.5721 27.611 18.361C27.4555 19.1499 27.2184 19.9148 26.9 20.6557C26.7222 21.0703 26.487 21.324 26.1943 21.4167C25.9019 21.5093 25.6223 21.5001 25.3557 21.389C25.089 21.2779 24.8834 21.1038 24.739 20.8667C24.5946 20.6295 24.5963 20.3665 24.7443 20.0777C25.0481 19.4408 25.2703 18.7797 25.411 18.0943C25.5519 17.4092 25.6223 16.7 25.6223 15.9667ZM19.3667 11.1223C20.174 11.6185 20.7888 12.3222 21.211 13.2333C21.6332 14.1444 21.8443 15.0667 21.8443 16V16.4443C21.8443 16.5852 21.8259 16.7334 21.789 16.889C21.7446 17.1334 21.6112 17.2927 21.389 17.3667C21.1668 17.4407 20.9593 17.3814 20.7667 17.189L18.8443 15.2667C18.7259 15.1482 18.6408 15.0241 18.589 14.8943C18.537 14.7648 18.511 14.6259 18.511 14.4777V11.6C18.511 11.3778 18.6054 11.213 18.7943 11.1057C18.9832 10.9981 19.174 11.0037 19.3667 11.1223ZM12.7777 9.19999C12.6592 9.08154 12.6 8.94821 12.6 8.79999C12.6 8.65176 12.6592 8.51843 12.7777 8.39999L13.9557 7.22232C14.3037 6.8741 14.7054 6.79443 15.161 6.98332C15.6166 7.17221 15.8443 7.51476 15.8443 8.01099V10.9333C15.8443 11.1851 15.7296 11.3554 15.5 11.4443C15.2704 11.5332 15.0668 11.4888 14.889 11.311L12.7777 9.19999ZM13.6223 21.2667V16.889L10.9557 14.2223H6.06667V17.7777H10.1333L13.6223 21.2667Z"
    fill="currentColor" />
</svg>
