<svg width="32" height="32" viewBox="0 0 32 32" fill="none" xmlns="http://www.w3.org/2000/svg">
  <path d="M4.88867 27.1113H24.8887V29.333H2.66699V7.11133H4.88867V27.1113Z" fill="currentColor" />
  <path fill-rule="evenodd" clip-rule="evenodd"
    d="M29.333 24.8887H7.11133V2.66699H29.333V24.8887ZM11 7.82617L14.6777 11.5039H12.1172V15.6934H14.9102L18.4014 19.1846V15.2158L21.0957 17.9219C20.9017 18.0576 20.6947 18.1685 20.4756 18.2539C20.2565 18.3391 20.0304 18.4186 19.7979 18.4922V19.6904C20.1858 19.6012 20.5602 19.4783 20.9209 19.3213C21.2817 19.1642 21.6194 18.9769 21.9336 18.7598L24.1738 21L25 20.1621L11.8262 7L11 7.82617ZM19.7979 8.66992C20.9228 8.94141 21.8251 9.53675 22.5039 10.4561C23.1828 11.3754 23.5225 12.4173 23.5225 13.5811C23.5225 14.0311 23.469 14.4699 23.3623 14.8965C23.2556 15.3231 23.0912 15.7284 22.8701 16.1123L23.708 16.9502C24.03 16.4459 24.2736 15.9081 24.4385 15.3379C24.6032 14.7678 24.6855 14.1822 24.6855 13.5811C24.6855 12.1031 24.2319 10.7968 23.3242 9.66211C22.4165 8.52745 21.2409 7.79753 19.7979 7.47168V8.66992ZM19.7979 13.04L21.3691 14.6113C21.4273 14.4484 21.4709 14.282 21.5 14.1133C21.5291 13.9446 21.5439 13.7731 21.5439 13.5986C21.5439 12.9935 21.3894 12.4349 21.0811 11.9229C20.7727 11.4108 20.3448 11.0265 19.7979 10.7705V13.04ZM16.5859 9.82812L18.4014 11.6436V8.0127L16.5859 9.82812Z"
    fill="currentColor" />
</svg>
