<svg width="32" height="32" viewBox="0 0 32 32" fill="none" xmlns="http://www.w3.org/2000/svg">
  <path
    d="M25.7777 16.1195C25.7777 14.1122 25.2259 12.2992 24.1223 10.6805C23.0186 9.06206 21.563 7.87505 19.7557 7.1195C19.4668 6.9935 19.2593 6.79539 19.1333 6.52517C19.0073 6.25472 18.9999 5.9825 19.111 5.7085C19.2297 5.41205 19.439 5.20461 19.739 5.08617C20.039 4.96772 20.3446 4.97139 20.6557 5.09717C22.8703 6.02317 24.6481 7.48061 25.989 9.4695C27.3297 11.4584 28 13.6751 28 16.1195C28 18.5639 27.3297 20.7806 25.989 22.7695C24.6481 24.7584 22.8703 26.2158 20.6557 27.1418C20.3446 27.2676 20.039 27.2713 19.739 27.1528C19.439 27.0344 19.2297 26.8269 19.111 26.5305C18.9999 26.2565 19.0073 25.9843 19.1333 25.7138C19.2593 25.4436 19.4668 25.2455 19.7557 25.1195C21.563 24.3639 23.0186 23.1769 24.1223 21.5585C25.2259 19.9398 25.7777 18.1268 25.7777 16.1195ZM9.33333 20.1528H5.111C4.79256 20.1528 4.52778 20.0473 4.31667 19.8362C4.10556 19.6251 4 19.3603 4 19.0418V13.2638C4 12.9454 4.10556 12.6806 4.31667 12.4695C4.52778 12.2584 4.79256 12.1528 5.111 12.1528H9.33333L14.111 7.37517C14.4592 7.02694 14.8611 6.94728 15.3167 7.13617C15.7722 7.32505 16 7.66761 16 8.16383V24.1418C16 24.6381 15.7722 24.9806 15.3167 25.1695C14.8611 25.3584 14.4592 25.2787 14.111 24.9305L9.33333 20.1528ZM22 16.1528C22 17.2344 21.737 18.2252 21.211 19.1252C20.6852 20.0252 19.9593 20.7269 19.0333 21.2305C18.8407 21.3343 18.6573 21.3287 18.4833 21.2138C18.3093 21.0992 18.2223 20.9381 18.2223 20.7305V11.5305C18.2223 11.3232 18.3093 11.1621 18.4833 11.0472C18.6573 10.9325 18.8407 10.9269 19.0333 11.0305C19.9593 11.5416 20.6852 12.2565 21.211 13.1752C21.737 14.0936 22 15.0862 22 16.1528ZM13.7777 11.0195L10.311 14.3752H6.22233V17.9305H10.311L13.7777 21.3085V11.0195Z"
    fill="currentColor" />
</svg>
