<svg width="80" height="50" viewBox="0 0 80 50" fill="none" xmlns="http://www.w3.org/2000/svg">
  <path fill-rule="evenodd" clip-rule="evenodd"
    d="M40 0.555542C29.3333 0.555542 22.6667 5.88888 20 16.5555C24 11.2222 28.6667 9.22221 34 10.5555C37.043 11.3155 39.2178 13.5244 41.6252 15.9674C45.5467 19.9481 50.0859 24.5555 60 24.5555C70.6667 24.5555 77.3333 19.2222 80 8.55554C76 13.8889 71.3333 15.8889 66 14.5555C62.957 13.7955 60.7822 11.5867 58.3748 9.14369C54.4533 5.16295 49.9141 0.555542 40 0.555542ZM20 24.5555C9.33333 24.5555 2.66667 29.8889 0 40.5555C4 35.2222 8.66667 33.2222 14 34.5555C17.043 35.317 19.2178 37.5244 21.6252 39.9674C25.5467 43.9481 30.0859 48.5555 40 48.5555C50.6667 48.5555 57.3333 43.2222 60 32.5555C56 37.8889 51.3333 39.8889 46 38.5555C42.957 37.7955 40.7822 35.5867 38.3748 33.1437C34.4533 29.1629 29.9141 24.5555 20 24.5555Z"
    fill="currentColor" />
</svg>
