<svg width="32" height="32" viewBox="0 0 32 32" fill="none" xmlns="http://www.w3.org/2000/svg">
  <g clip-path="url(#clip0_231_3810)">
    <path
      d="M24.3733 11.16C24.1505 10.8842 23.8273 10.7081 23.4747 10.6706C23.1222 10.6331 22.7691 10.7372 22.4933 10.96C22.2175 11.1828 22.0414 11.506 22.0039 11.8586C21.9664 12.2111 22.0705 12.5642 22.2933 12.84C22.9669 13.7559 23.3303 14.863 23.3303 16C23.3303 17.1369 22.9669 18.2441 22.2933 19.16C22.1343 19.3559 22.0342 19.593 22.0046 19.8435C21.975 20.0941 22.0171 20.3479 22.126 20.5755C22.2349 20.8031 22.4062 20.9951 22.6199 21.1293C22.8336 21.2634 23.081 21.3342 23.3333 21.3333C23.5325 21.334 23.7293 21.29 23.9093 21.2047C24.0893 21.1193 24.2478 20.9947 24.3733 20.84C25.4309 19.4481 26.0035 17.7481 26.0035 16C26.0035 14.2519 25.4309 12.5519 24.3733 11.16Z"
      fill="currentColor" />
    <path
      d="M26.1866 6.97334C26.0518 6.86128 25.8962 6.77687 25.7288 6.72494C25.5613 6.673 25.3853 6.65455 25.2107 6.67065C25.0362 6.68674 24.8665 6.73707 24.7113 6.81874C24.5562 6.90042 24.4187 7.01185 24.3066 7.14667C24.1946 7.2815 24.1102 7.43707 24.0582 7.60452C24.0063 7.77196 23.9878 7.948 24.0039 8.12257C24.02 8.29715 24.0704 8.46684 24.152 8.62197C24.2337 8.77709 24.3451 8.91461 24.48 9.02667C25.5493 9.85317 26.4204 10.9083 27.0295 12.1148C27.6385 13.3214 27.9701 14.6488 28 16C27.9701 17.3512 27.6385 18.6787 27.0295 19.8852C26.4204 21.0917 25.5493 22.1468 24.48 22.9733C24.345 23.0853 24.2334 23.2227 24.1516 23.3779C24.0697 23.533 24.0194 23.7027 24.0033 23.8774C23.9871 24.052 24.0057 24.2281 24.0577 24.3956C24.1098 24.5631 24.1944 24.7186 24.3066 24.8533C24.432 25.0039 24.589 25.1249 24.7664 25.2079C24.9439 25.2908 25.1374 25.3337 25.3333 25.3333C25.6448 25.334 25.9468 25.2255 26.1866 25.0267C27.5606 23.9526 28.6762 22.5841 29.4515 21.022C30.2268 19.4599 30.642 17.7438 30.6666 16C30.642 14.2562 30.2268 12.5402 29.4515 10.978C28.6762 9.41589 27.5606 8.04744 26.1866 6.97334Z"
      fill="currentColor" />
    <path
      d="M20 4.15999C19.7973 4.04296 19.5674 3.98135 19.3333 3.98135C19.0993 3.98135 18.8694 4.04296 18.6667 4.15999L10.0267 10.0933H3.36001C3.00638 10.0933 2.66725 10.2338 2.4172 10.4838C2.16715 10.7339 2.02667 11.073 2.02667 11.4267V20.5733C2.02667 20.9269 2.16715 21.2661 2.4172 21.5161C2.66725 21.7662 3.00638 21.9067 3.36001 21.9067H10.0267L18.5733 27.7733C18.7998 27.9199 19.0636 27.9985 19.3333 28C19.687 28 20.0261 27.8595 20.2761 27.6095C20.5262 27.3594 20.6667 27.0203 20.6667 26.6667V5.33332C20.67 5.09612 20.6099 4.86234 20.4927 4.65608C20.3756 4.44983 20.2055 4.27857 20 4.15999ZM18.04 24.16L11.2 19.4667C10.9755 19.3158 10.7105 19.2367 10.44 19.24H4.66667V12.76H10.44C10.7105 12.7633 10.9755 12.6842 11.2 12.5333L18 7.86665L18.04 24.16Z"
      fill="currentColor" />
  </g>
  <defs>
    <clipPath id="clip0_231_3810">
      <rect width="32" height="32" fill="white" />
    </clipPath>
  </defs>
</svg>
