<svg width="32" height="32" viewBox="0 0 32 32" fill="none" xmlns="http://www.w3.org/2000/svg">
  <path
    d="M17.3333 18.6667V26.6667C17.3333 27.4 17.9333 28 18.6667 28H26.6667C27.4 28 28 27.4 28 26.6667V18.6667C28 17.9333 27.4 17.3333 26.6667 17.3333H18.6667C17.9333 17.3333 17.3333 17.9333 17.3333 18.6667ZM5.33333 28H13.3333C14.0667 28 14.6667 27.4 14.6667 26.6667V18.6667C14.6667 17.9333 14.0667 17.3333 13.3333 17.3333H5.33333C4.6 17.3333 4 17.9333 4 18.6667V26.6667C4 27.4 4.6 28 5.33333 28ZM4 5.33333V13.3333C4 14.0667 4.6 14.6667 5.33333 14.6667H13.3333C14.0667 14.6667 14.6667 14.0667 14.6667 13.3333V5.33333C14.6667 4.6 14.0667 4 13.3333 4H5.33333C4.6 4 4 4.6 4 5.33333ZM21.2667 3.2L15.6 8.85333C15.08 9.37333 15.08 10.2133 15.6 10.7333L21.2667 16.4C21.7867 16.92 22.6267 16.92 23.1467 16.4L28.8133 10.7333C29.3333 10.2133 29.3333 9.37333 28.8133 8.85333L23.16 3.2C22.64 2.68 21.7867 2.68 21.2667 3.2Z"
    fill="currentColor" />
</svg>
